<?xml version="1.0" encoding="UTF-8"?>
<!DOCTYPE svg PUBLIC "-//W3C//DTD SVG 1.1//EN" "http://www.w3.org/Graphics/SVG/1.1/DTD/svg11.dtd">
<svg xmlns="http://www.w3.org/2000/svg" version="1.1" width="708px" height="425px" style="shape-rendering:geometricPrecision; text-rendering:geometricPrecision; image-rendering:optimizeQuality; fill-rule:evenodd; clip-rule:evenodd" xmlns:xlink="http://www.w3.org/1999/xlink">
<g><path style="opacity:0.203" fill="#faf6f7" d="M 320.5,38.5 C 317.411,39.7846 314.078,40.4512 310.5,40.5C 313.337,38.5977 316.671,37.931 320.5,38.5 Z"/></g>
<g><path style="opacity:0.988" fill="#bc3231" d="M 320.5,38.5 C 341.833,38.5 363.167,38.5 384.5,38.5C 392.968,39.8181 401.635,40.4848 410.5,40.5C 411.167,40.5 411.833,40.5 412.5,40.5C 417.646,41.5514 422.979,42.2181 428.5,42.5C 429.5,42.5 430.5,42.5 431.5,42.5C 439.581,44.5615 447.914,45.8948 456.5,46.5C 457.5,46.5 458.5,46.5 459.5,46.5C 471.23,48.9546 482.896,52.1213 494.5,56C 515.562,65.5595 530.229,81.0595 538.5,102.5C 538.5,103.5 538.5,104.5 538.5,105.5C 535.193,104.949 531.86,104.616 528.5,104.5C 527.833,104.5 527.167,104.5 526.5,104.5C 523.411,103.215 520.078,102.549 516.5,102.5C 515.5,102.5 514.5,102.5 513.5,102.5C 504.731,100.453 495.731,99.12 486.5,98.5C 484.5,98.5 482.5,98.5 480.5,98.5C 474.03,97.3044 467.363,96.6377 460.5,96.5C 459.5,96.5 458.5,96.5 457.5,96.5C 449.001,95.5178 440.334,94.6844 431.5,94C 407.996,93.1703 384.663,93.3369 361.5,94.5C 359.167,94.5 356.833,94.5 354.5,94.5C 340.608,94.8973 326.941,96.2306 313.5,98.5C 311.167,98.5 308.833,98.5 306.5,98.5C 302.663,98.9309 298.997,99.5975 295.5,100.5C 293.833,100.5 292.167,100.5 290.5,100.5C 286.267,100.539 282.267,101.205 278.5,102.5C 277.833,102.5 277.167,102.5 276.5,102.5C 265.169,103.805 254.003,105.805 243,108.5C 234.674,129.804 229.174,151.804 226.5,174.5C 226.5,175.167 226.5,175.833 226.5,176.5C 225.511,182.322 224.844,188.322 224.5,194.5C 224.5,199.5 224.5,204.5 224.5,209.5C 223.443,223.659 222.777,237.992 222.5,252.5C 222.5,255.833 222.5,259.167 222.5,262.5C 221.669,275.343 220.835,288.343 220,301.5C 193.529,317.756 175.862,311.089 167,281.5C 166.098,276.706 165.265,272.039 164.5,267.5C 164.5,250.833 164.5,234.167 164.5,217.5C 165.518,212.016 166.184,206.349 166.5,200.5C 167.644,196.036 168.31,191.37 168.5,186.5C 171.138,175.275 173.805,163.941 176.5,152.5C 177.738,150.786 178.405,148.786 178.5,146.5C 179.738,144.786 180.405,142.786 180.5,140.5C 183.141,134.267 185.808,127.934 188.5,121.5C 188.043,120.702 187.376,120.369 186.5,120.5C 181.167,120.5 175.833,120.5 170.5,120.5C 167.171,120.215 164.171,120.882 161.5,122.5C 160.833,122.5 160.167,122.5 159.5,122.5C 162.229,96.2825 175.563,77.7825 199.5,67C 207.932,64.6084 216.265,62.4417 224.5,60.5C 227.428,60.4349 230.095,59.7682 232.5,58.5C 243.511,56.7472 254.178,54.0805 264.5,50.5C 273.819,49.4525 282.819,47.4525 291.5,44.5C 291.833,44.5 292.167,44.5 292.5,44.5C 295.495,44.7062 298.162,44.0395 300.5,42.5C 304.078,42.4512 307.411,41.7846 310.5,40.5C 314.078,40.4512 317.411,39.7846 320.5,38.5 Z"/></g>
<g><path style="opacity:0.251" fill="#f7e9ea" d="M 384.5,38.5 C 393.565,37.8636 402.231,38.5302 410.5,40.5C 401.635,40.4848 392.968,39.8181 384.5,38.5 Z"/></g>
<g><path style="opacity:0.203" fill="#faf5f6" d="M 310.5,40.5 C 307.411,41.7846 304.078,42.4512 300.5,42.5C 303.337,40.5977 306.671,39.931 310.5,40.5 Z"/></g>
<g><path style="opacity:0.204" fill="#f8eced" d="M 412.5,40.5 C 418.271,39.8872 423.604,40.5539 428.5,42.5C 422.979,42.2181 417.646,41.5514 412.5,40.5 Z"/></g>
<g><path style="opacity:0.153" fill="#f7e9ea" d="M 300.5,42.5 C 298.162,44.0395 295.495,44.7062 292.5,44.5C 294.635,42.631 297.302,41.9644 300.5,42.5 Z"/></g>
<g><path style="opacity:0.228" fill="#f7e7e8" d="M 431.5,42.5 C 436.544,42.1725 441.544,42.5059 446.5,43.5C 450.263,43.8962 453.597,44.8962 456.5,46.5C 447.914,45.8948 439.581,44.5615 431.5,42.5 Z"/></g>
<g><path style="opacity:0.199" fill="#f7e8e8" d="M 291.5,44.5 C 282.819,47.4525 273.819,49.4525 264.5,50.5C 266.717,48.9201 269.384,47.9201 272.5,47.5C 278.77,45.9785 285.103,44.9785 291.5,44.5 Z"/></g>
<g><path style="opacity:0.216" fill="#f7e9e9" d="M 264.5,50.5 C 254.178,54.0805 243.511,56.7472 232.5,58.5C 242.494,54.0014 253.16,51.3347 264.5,50.5 Z"/></g>
<g><path style="opacity:0.165" fill="#f8eced" d="M 459.5,46.5 C 477.717,47.305 494.717,52.305 510.5,61.5C 516.833,67.8333 523.167,74.1667 529.5,80.5C 533.644,87.4425 536.644,94.7758 538.5,102.5C 530.229,81.0595 515.562,65.5595 494.5,56C 482.896,52.1213 471.23,48.9546 459.5,46.5 Z"/></g>
<g><path style="opacity:0.176" fill="#faf3f4" d="M 232.5,58.5 C 230.095,59.7682 227.428,60.4349 224.5,60.5C 226.635,58.631 229.302,57.9644 232.5,58.5 Z"/></g>
<g><path style="opacity:0.99" fill="#bb3030" d="M 622.5,127.5 C 622.5,129.833 622.5,132.167 622.5,134.5C 622.774,145.344 623.44,156.01 624.5,166.5C 624.5,169.167 624.5,171.833 624.5,174.5C 625.018,179.986 625.685,185.319 626.5,190.5C 626.5,191.833 626.5,193.167 626.5,194.5C 626.369,195.376 626.702,196.043 627.5,196.5C 640.718,190.059 653.718,183.392 666.5,176.5C 667.5,176.5 668.5,176.5 669.5,176.5C 676.252,178.246 681.252,182.246 684.5,188.5C 684.5,192.5 684.5,196.5 684.5,200.5C 682.783,211.106 678.45,220.606 671.5,229C 640.977,245.431 609.643,259.931 577.5,272.5C 575.5,272.5 573.5,272.5 571.5,272.5C 562.941,269.053 559.274,262.72 560.5,253.5C 560.5,250.5 560.5,247.5 560.5,244.5C 559.363,204.475 559.363,164.475 560.5,124.5C 560.5,118.833 560.5,113.167 560.5,107.5C 562.165,93.6884 568.498,82.1884 579.5,73C 592.71,60.6753 606.21,60.5087 620,72.5C 620.188,91.0211 621.021,109.354 622.5,127.5 Z"/></g>
<g><path style="opacity:0.154" fill="#f9eeef" d="M 224.5,60.5 C 216.265,62.4417 207.932,64.6084 199.5,67C 175.563,77.7825 162.229,96.2825 159.5,122.5C 159.93,92.033 174.93,72.3663 204.5,63.5C 211.014,61.4143 217.68,60.4143 224.5,60.5 Z"/></g>
<g><path style="opacity:0.157" fill="#f8edee" d="M 622.5,127.5 C 621.021,109.354 620.188,91.0211 620,72.5C 606.21,60.5087 592.71,60.6753 579.5,73C 568.498,82.1884 562.165,93.6884 560.5,107.5C 559.62,99.2443 561.287,91.5777 565.5,84.5C 572.568,76.7622 580.234,69.7622 588.5,63.5C 595.833,62.1667 603.167,62.1667 610.5,63.5C 614.314,65.7439 618.314,67.4106 622.5,68.5C 622.5,88.1667 622.5,107.833 622.5,127.5 Z"/></g>
<g><path style="opacity:0.165" fill="#f9efef" d="M 154.5,100.5 C 154.993,98.1944 155.326,95.861 155.5,93.5C 149.491,93.3338 143.491,93.5005 137.5,94C 92.0011,123.829 55.8345,162.329 29,209.5C 27.548,214.975 26.048,220.308 24.5,225.5C 24.429,217.451 26.0957,209.784 29.5,202.5C 54.1447,161.849 85.8114,127.515 124.5,99.5C 127.833,97.5 131.167,95.5 134.5,93.5C 141.803,92.5027 149.137,92.1694 156.5,92.5C 157.036,95.6981 156.369,98.3647 154.5,100.5 Z"/></g>
<g><path style="opacity:0.987" fill="#bb3131" d="M 154.5,100.5 C 149.891,118.141 146.558,136.141 144.5,154.5C 144.5,154.833 144.5,155.167 144.5,155.5C 142.348,166.263 141.015,177.263 140.5,188.5C 140.5,193.833 140.5,199.167 140.5,204.5C 140.322,208.122 140.989,211.456 142.5,214.5C 142.539,218.733 143.205,222.733 144.5,226.5C 144.5,227.167 144.5,227.833 144.5,228.5C 144.539,232.733 145.205,236.733 146.5,240.5C 146.5,241.167 146.5,241.833 146.5,242.5C 146.782,248.021 147.449,253.354 148.5,258.5C 148.5,259.833 148.5,261.167 148.5,262.5C 149.528,274.173 149.528,285.839 148.5,297.5C 137.456,301.522 126.123,302.522 114.5,300.5C 107.337,297.179 101.504,292.179 97,285.5C 93.4525,278.669 90.6192,271.669 88.5,264.5C 85.1667,264.5 81.8333,264.5 78.5,264.5C 77.1611,272.34 75.3278,280.34 73,288.5C 46.7177,284.056 30.551,268.723 24.5,242.5C 24.5,236.833 24.5,231.167 24.5,225.5C 26.048,220.308 27.548,214.975 29,209.5C 55.8345,162.329 92.0011,123.829 137.5,94C 143.491,93.5005 149.491,93.3338 155.5,93.5C 155.326,95.861 154.993,98.1944 154.5,100.5 Z M 98.5,152.5 C 98.5,153.833 99.1667,154.5 100.5,154.5C 101.586,154.62 102.253,155.287 102.5,156.5C 101.999,158.836 100.999,160.836 99.5,162.5C 98.8485,163.091 98.1818,163.757 97.5,164.5C 93.5,176.5 89.5,188.5 85.5,200.5C 84.52,203.086 84.1866,205.753 84.5,208.5C 82.6921,209.918 82.0254,211.918 82.5,214.5C 81.2502,214.577 80.4169,215.244 80,216.5C 78.4118,212.691 78.0784,208.691 79,204.5C 84.9088,192.346 89.4088,179.679 92.5,166.5C 92.5,165.833 92.5,165.167 92.5,164.5C 94.5518,163.947 94.8852,162.947 93.5,161.5C 90.4872,155.863 92.1539,152.863 98.5,152.5 Z"/></g>
<g><path style="opacity:0.281" fill="#f2d7d8" d="M 361.5,94.5 C 384.663,93.3369 407.996,93.1703 431.5,94C 440.334,94.6844 449.001,95.5178 457.5,96.5C 425.52,95.0778 393.52,94.4111 361.5,94.5 Z"/></g>
<g><path style="opacity:0.251" fill="#f6e6e6" d="M 354.5,94.5 C 341.23,96.9508 327.564,98.2841 313.5,98.5C 326.941,96.2306 340.608,94.8973 354.5,94.5 Z"/></g>
<g><path style="opacity:0.251" fill="#f9f0f1" d="M 460.5,96.5 C 467.363,96.6377 474.03,97.3044 480.5,98.5C 473.416,99.1255 466.75,98.4589 460.5,96.5 Z"/></g>
<g><path style="opacity:0.167" fill="#f7ebec" d="M 306.5,98.5 C 303.316,100.414 299.649,101.08 295.5,100.5C 298.997,99.5975 302.663,98.9309 306.5,98.5 Z"/></g>
<g><path style="opacity:0.15" fill="#f5dfe0" d="M 290.5,100.5 C 286.971,102.423 282.971,103.089 278.5,102.5C 282.267,101.205 286.267,100.539 290.5,100.5 Z"/></g>
<g><path style="opacity:0.228" fill="#f6e4e5" d="M 486.5,98.5 C 495.731,99.12 504.731,100.453 513.5,102.5C 508.456,102.827 503.456,102.494 498.5,101.5C 494.084,101.118 490.084,100.118 486.5,98.5 Z"/></g>
<g><path style="opacity:0.163" fill="#f7e8e9" d="M 516.5,102.5 C 520.078,102.549 523.411,103.215 526.5,104.5C 522.671,105.069 519.337,104.402 516.5,102.5 Z"/></g>
<g><path style="opacity:0.163" fill="#f7e7e8" d="M 528.5,104.5 C 531.86,104.616 535.193,104.949 538.5,105.5C 537.036,106.16 535.369,106.493 533.5,106.5C 531.36,106.444 529.694,105.777 528.5,104.5 Z"/></g>
<g><path style="opacity:0.153" fill="#f6e3e4" d="M 154.5,100.5 C 153.163,111.857 151.497,123.19 149.5,134.5C 148.43,141.576 146.764,148.243 144.5,154.5C 146.558,136.141 149.891,118.141 154.5,100.5 Z"/></g>
<g><path style="opacity:0.989" fill="#bc3130" d="M 446.5,118.5 C 451.167,118.5 455.833,118.5 460.5,118.5C 471.309,120.331 480.142,125.664 487,134.5C 488.418,142.394 490.251,150.061 492.5,157.5C 492.5,157.833 492.5,158.167 492.5,158.5C 492.753,162.04 493.419,165.373 494.5,168.5C 495.216,176.069 496.549,183.402 498.5,190.5C 498.5,191.167 498.5,191.833 498.5,192.5C 499.237,201.397 500.571,210.064 502.5,218.5C 502.596,224.373 503.263,230.04 504.5,235.5C 504.5,237.167 504.5,238.833 504.5,240.5C 505.575,257.149 505.742,273.816 505,290.5C 503.042,295.59 500.208,300.09 496.5,304C 492.566,306.464 488.566,308.631 484.5,310.5C 481.167,310.5 477.833,310.5 474.5,310.5C 470.255,309.198 465.922,307.865 461.5,306.5C 459.968,299.257 459.302,291.924 459.5,284.5C 455.5,284.5 451.5,284.5 447.5,284.5C 447.452,300.686 439.785,310.686 424.5,314.5C 415.167,314.5 405.833,314.5 396.5,314.5C 387.838,310.503 382.504,303.837 380.5,294.5C 380.5,292.833 380.5,291.167 380.5,289.5C 382.57,283.442 383.904,277.108 384.5,270.5C 385.531,268.039 386.198,265.373 386.5,262.5C 386.5,262.167 386.5,261.833 386.5,261.5C 388.118,258.829 388.785,255.829 388.5,252.5C 390.04,250.162 390.706,247.495 390.5,244.5C 390.5,244.167 390.5,243.833 390.5,243.5C 392.118,240.829 392.785,237.829 392.5,234.5C 393.531,232.039 394.198,229.373 394.5,226.5C 394.5,226.167 394.5,225.833 394.5,225.5C 396.57,220.125 397.904,214.458 398.5,208.5C 399.785,205.411 400.451,202.078 400.5,198.5C 400.5,198.167 400.5,197.833 400.5,197.5C 403.904,185.444 406.571,173.11 408.5,160.5C 409.785,157.411 410.451,154.078 410.5,150.5C 410.5,150.167 410.5,149.833 410.5,149.5C 416.991,132.67 428.991,122.336 446.5,118.5 Z M 458.5,184.5 C 457.911,188.971 458.577,192.971 460.5,196.5C 460.5,198.5 460.5,200.5 460.5,202.5C 458.692,203.918 458.025,205.918 458.5,208.5C 457.964,211.698 458.631,214.365 460.5,216.5C 460.5,218.167 460.5,219.833 460.5,221.5C 459.883,221.611 459.383,221.944 459,222.5C 458.502,225.817 458.335,229.15 458.5,232.5C 458.5,232.833 458.5,233.167 458.5,233.5C 457.057,234.335 456.057,235.668 455.5,237.5C 455.036,235.025 454.036,233.025 452.5,231.5C 452.5,230.5 452.5,229.5 452.5,228.5C 452.167,211.154 452.5,193.821 453.5,176.5C 455.369,179.217 457.035,181.883 458.5,184.5 Z"/></g>
<g><path style="opacity:0.184" fill="#f8eaeb" d="M 460.5,118.5 C 471.545,117.855 480.545,121.855 487.5,130.5C 489.942,139.377 491.609,148.377 492.5,157.5C 490.251,150.061 488.418,142.394 487,134.5C 480.142,125.664 471.309,120.331 460.5,118.5 Z"/></g>
<g><path style="opacity:0.153" fill="#f5e0e0" d="M 170.5,120.5 C 168.012,122.388 165.012,123.055 161.5,122.5C 164.171,120.882 167.171,120.215 170.5,120.5 Z"/></g>
<g><path style="opacity:0.166" fill="#f9f0f1" d="M 446.5,118.5 C 428.991,122.336 416.991,132.67 410.5,149.5C 410.348,145.532 411.348,141.865 413.5,138.5C 418.783,129.212 426.45,122.878 436.5,119.5C 439.768,118.513 443.102,118.18 446.5,118.5 Z"/></g>
<g><path style="opacity:0.26" fill="#faf2f3" d="M 560.5,124.5 C 559.363,164.475 559.363,204.475 560.5,244.5C 559.167,224.845 558.5,204.845 558.5,184.5C 558.5,164.155 559.167,144.155 560.5,124.5 Z"/></g>
<g><path style="opacity:0.176" fill="#f8eced" d="M 286.5,126.5 C 270.676,126.753 259.343,134.086 252.5,148.5C 252.483,144.883 253.483,141.55 255.5,138.5C 259.247,134.082 263.58,130.416 268.5,127.5C 274.463,126.504 280.463,126.171 286.5,126.5 Z"/></g>
<g><path style="opacity:0.992" fill="#bc3030" d="M 286.5,126.5 C 296.833,126.5 307.167,126.5 317.5,126.5C 324.33,127.426 331.33,128.093 338.5,128.5C 345.72,129.875 353.053,131.375 360.5,133C 364.759,136.358 367.926,140.525 370,145.5C 377.249,178.259 371.083,208.092 351.5,235C 360.801,246.423 367.134,259.256 370.5,273.5C 370.5,273.833 370.5,274.167 370.5,274.5C 371.9,284.848 371.733,295.181 370,305.5C 354.723,313.558 338.723,315.558 322,311.5C 315.145,299.087 309.978,286.087 306.5,272.5C 306.5,271.167 306.5,269.833 306.5,268.5C 306.058,264.398 304.558,260.731 302,257.5C 300.989,256.663 299.822,256.33 298.5,256.5C 298.5,259.167 298.5,261.833 298.5,264.5C 296.743,276.953 296.076,289.62 296.5,302.5C 282.979,315.041 267.979,316.874 251.5,308C 248.771,304.692 246.438,301.192 244.5,297.5C 244.5,296.5 244.5,295.5 244.5,294.5C 243.177,266.499 243.177,238.499 244.5,210.5C 244.5,209.167 244.5,207.833 244.5,206.5C 246.24,196.025 247.573,185.359 248.5,174.5C 248.5,173.833 248.5,173.167 248.5,172.5C 249.785,169.411 250.451,166.078 250.5,162.5C 250.5,162.167 250.5,161.833 250.5,161.5C 251.895,157.409 252.562,153.076 252.5,148.5C 259.343,134.086 270.676,126.753 286.5,126.5 Z M 302.5,168.5 C 305.833,168.5 309.167,168.5 312.5,168.5C 312.5,178.833 312.5,189.167 312.5,199.5C 312.5,200.5 312.5,201.5 312.5,202.5C 310.583,203.406 308.917,204.739 307.5,206.5C 305.986,202.871 304.32,199.538 302.5,196.5C 302.5,195.5 302.5,194.5 302.5,193.5C 302.5,185.167 302.5,176.833 302.5,168.5 Z"/></g>
<g><path style="opacity:0.204" fill="#f5e2e3" d="M 317.5,126.5 C 324.913,125.872 331.913,126.539 338.5,128.5C 331.33,128.093 324.33,127.426 317.5,126.5 Z"/></g>
<g><path style="opacity:0.212" fill="#f4dedf" d="M 546.5,149.5 C 546.971,139.633 542.637,132.466 533.5,128C 527.017,126.822 521.517,128.656 517,133.5C 517.623,163.662 517.457,193.662 516.5,223.5C 516.592,192.479 515.925,161.479 514.5,130.5C 517.012,130.577 519.012,129.577 520.5,127.5C 526.5,126.167 532.5,126.167 538.5,127.5C 545.666,133.035 548.333,140.368 546.5,149.5 Z"/></g>
<g><path style="opacity:0.984" fill="#bd3836" d="M 546.5,149.5 C 546.5,151.833 546.5,154.167 546.5,156.5C 547.833,185.167 547.833,213.833 546.5,242.5C 546.5,244.833 546.5,247.167 546.5,249.5C 546.542,265.209 542.042,279.542 533,292.5C 529.922,296.085 526.422,299.085 522.5,301.5C 516.068,298.883 513.068,294.05 513.5,287C 514.198,282.189 514.531,277.356 514.5,272.5C 514.5,269.833 514.5,267.167 514.5,264.5C 515.692,252.683 516.358,240.683 516.5,228.5C 516.5,226.833 516.5,225.167 516.5,223.5C 517.457,193.662 517.623,163.662 517,133.5C 521.517,128.656 527.017,126.822 533.5,128C 542.637,132.466 546.971,139.633 546.5,149.5 Z"/></g>
<g><path style="opacity:0.185" fill="#f8eeee" d="M 186.5,120.5 C 187.376,120.369 188.043,120.702 188.5,121.5C 185.808,127.934 183.141,134.267 180.5,140.5C 180.187,137.753 180.52,135.086 181.5,132.5C 183.377,128.523 185.043,124.523 186.5,120.5 Z"/></g>
<g><path style="opacity:0.194" fill="#f7e6e7" d="M 276.5,102.5 C 266.903,105.428 256.903,107.761 246.5,109.5C 245.5,110.5 244.5,111.5 243.5,112.5C 237.193,130.085 232.526,148.085 229.5,166.5C 229.08,169.616 228.08,172.283 226.5,174.5C 229.174,151.804 234.674,129.804 243,108.5C 254.003,105.805 265.169,103.805 276.5,102.5 Z"/></g>
<g><path style="opacity:0.267" fill="#f7ebeb" d="M 622.5,134.5 C 624.476,144.781 625.143,155.448 624.5,166.5C 623.44,156.01 622.774,145.344 622.5,134.5 Z"/></g>
<g><path style="opacity:0.13" fill="#f9f2f3" d="M 180.5,140.5 C 180.405,142.786 179.738,144.786 178.5,146.5C 178.025,143.918 178.692,141.918 180.5,140.5 Z"/></g>
<g><path style="opacity:0.13" fill="#faf6f7" d="M 178.5,146.5 C 178.405,148.786 177.738,150.786 176.5,152.5C 176.025,149.918 176.692,147.918 178.5,146.5 Z"/></g>
<g><path style="opacity:0.203" fill="#f6e5e5" d="M 252.5,148.5 C 252.562,153.076 251.895,157.409 250.5,161.5C 249.903,156.706 250.57,152.373 252.5,148.5 Z"/></g>
<g><path style="opacity:0.183" fill="#f7e8e8" d="M 410.5,150.5 C 410.451,154.078 409.785,157.411 408.5,160.5C 407.931,156.671 408.598,153.337 410.5,150.5 Z"/></g>
<g><path style="opacity:0.063" fill="#edc3c2" d="M 98.5,152.5 C 99.5,152.833 100.167,153.5 100.5,154.5C 99.1667,154.5 98.5,153.833 98.5,152.5 Z"/></g>
<g><path style="opacity:0.358" fill="#faf5f6" d="M 546.5,156.5 C 548.202,168.159 549.535,180.159 550.5,192.5C 549.415,209.493 548.082,226.16 546.5,242.5C 547.833,213.833 547.833,185.167 546.5,156.5 Z"/></g>
<g><path style="opacity:0.199" fill="#f9f2f3" d="M 176.5,152.5 C 173.805,163.941 171.138,175.275 168.5,186.5C 168.883,176.96 170.55,167.627 173.5,158.5C 173.964,156.025 174.964,154.025 176.5,152.5 Z"/></g>
<g><path style="opacity:0.163" fill="#f8ecec" d="M 492.5,158.5 C 494.402,161.337 495.069,164.671 494.5,168.5C 493.419,165.373 492.753,162.04 492.5,158.5 Z"/></g>
<g><path style="opacity:0.212" fill="#f4dcdd" d="M 144.5,155.5 C 144.829,161.206 144.495,166.872 143.5,172.5C 143.134,178.229 142.134,183.563 140.5,188.5C 141.015,177.263 142.348,166.263 144.5,155.5 Z"/></g>
<g><path style="opacity:0.15" fill="#f6e3e4" d="M 250.5,162.5 C 250.451,166.078 249.785,169.411 248.5,172.5C 247.931,168.671 248.598,165.337 250.5,162.5 Z"/></g>
<g><path style="opacity:0.02" fill="#e19e9c" d="M 93.5,161.5 C 94.8852,162.947 94.5518,163.947 92.5,164.5C 92.5569,163.391 92.8902,162.391 93.5,161.5 Z"/></g>
<g><path style="opacity:0.749" fill="#ebbebe" d="M 312.5,168.5 C 313.824,172.107 314.491,176.107 314.5,180.5C 314.639,187.065 313.972,193.399 312.5,199.5C 312.5,189.167 312.5,178.833 312.5,168.5 Z"/></g>
<g><path style="opacity:0.357" fill="#de9a99" d="M 458.5,184.5 C 457.035,181.883 455.369,179.217 453.5,176.5C 452.5,193.821 452.167,211.154 452.5,228.5C 451.698,227.048 451.198,225.382 451,223.5C 450.189,206.808 450.522,190.141 452,173.5C 452.202,171.744 452.702,170.078 453.5,168.5C 456.374,173.454 458.04,178.788 458.5,184.5 Z"/></g>
<g><path style="opacity:0.193" fill="#f8ebec" d="M 624.5,174.5 C 626.446,179.396 627.113,184.729 626.5,190.5C 625.685,185.319 625.018,179.986 624.5,174.5 Z"/></g>
<g><path style="opacity:0.749" fill="#eab9b8" d="M 302.5,168.5 C 302.5,176.833 302.5,185.167 302.5,193.5C 300.975,189.272 300.308,184.772 300.5,180C 300.667,176.833 300.833,173.667 301,170.5C 301.278,169.584 301.778,168.918 302.5,168.5 Z"/></g>
<g><path style="opacity:0.183" fill="#faf4f5" d="M 666.5,176.5 C 653.718,183.392 640.718,190.059 627.5,196.5C 626.702,196.043 626.369,195.376 626.5,194.5C 637.78,188.86 649.114,183.193 660.5,177.5C 662.396,176.534 664.396,176.201 666.5,176.5 Z"/></g>
<g><path style="opacity:0.137" fill="#f7e8e9" d="M 669.5,176.5 C 678.403,175.744 683.403,179.744 684.5,188.5C 681.252,182.246 676.252,178.246 669.5,176.5 Z"/></g>
<g><path style="opacity:0.183" fill="#f8eced" d="M 408.5,160.5 C 406.571,173.11 403.904,185.444 400.5,197.5C 400.177,193.774 400.511,190.107 401.5,186.5C 403.233,177.417 405.567,168.75 408.5,160.5 Z"/></g>
<g><path style="opacity:0.206" fill="#f8edee" d="M 494.5,168.5 C 496.104,171.403 497.104,174.737 497.5,178.5C 498.491,182.445 498.824,186.445 498.5,190.5C 496.549,183.402 495.216,176.069 494.5,168.5 Z"/></g>
<g><path style="opacity:0.192" fill="#f7e8e8" d="M 226.5,176.5 C 227.12,182.926 226.453,188.926 224.5,194.5C 224.844,188.322 225.511,182.322 226.5,176.5 Z"/></g>
<g><path style="opacity:0.206" fill="#f7eaeb" d="M 168.5,186.5 C 168.31,191.37 167.644,196.036 166.5,200.5C 165.897,195.381 166.564,190.715 168.5,186.5 Z"/></g>
<g><path style="opacity:0.167" fill="#d58585" d="M 458.5,184.5 C 459.378,188.336 460.044,192.336 460.5,196.5C 458.577,192.971 457.911,188.971 458.5,184.5 Z"/></g>
<g><path style="opacity:0.231" fill="#f7eaeb" d="M 248.5,174.5 C 247.573,185.359 246.24,196.025 244.5,206.5C 244.171,200.463 244.504,194.463 245.5,188.5C 245.872,183.429 246.872,178.762 248.5,174.5 Z"/></g>
<g><path style="opacity:0.194" fill="#f7e8e9" d="M 338.5,128.5 C 346.62,128.469 354.62,129.469 362.5,131.5C 366.733,134.962 369.733,139.295 371.5,144.5C 379.069,177.432 373.403,207.765 354.5,235.5C 364.113,246.331 369.446,258.998 370.5,273.5C 367.134,259.256 360.801,246.423 351.5,235C 371.083,208.092 377.249,178.259 370,145.5C 367.926,140.525 364.759,136.358 360.5,133C 353.053,131.375 345.72,129.875 338.5,128.5 Z"/></g>
<g><path style="opacity:0.2" fill="#ecc1c0" d="M 99.5,162.5 C 94.8706,178.053 89.8706,193.386 84.5,208.5C 84.1866,205.753 84.52,203.086 85.5,200.5C 89.5,188.5 93.5,176.5 97.5,164.5C 98.1818,163.757 98.8485,163.091 99.5,162.5 Z"/></g>
<g><path style="opacity:0.153" fill="#f4dede" d="M 400.5,198.5 C 400.451,202.078 399.785,205.411 398.5,208.5C 397.931,204.671 398.598,201.337 400.5,198.5 Z"/></g>
<g><path style="opacity:0.216" fill="#f9f0f0" d="M 166.5,200.5 C 166.184,206.349 165.518,212.016 164.5,217.5C 163.883,211.402 164.55,205.735 166.5,200.5 Z"/></g>
<g><path style="opacity:0.3" fill="#f5e0e0" d="M 302.5,196.5 C 304.32,199.538 305.986,202.871 307.5,206.5C 308.917,204.739 310.583,203.406 312.5,202.5C 311.995,206.012 309.995,208.345 306.5,209.5C 304.006,205.569 302.673,201.236 302.5,196.5 Z"/></g>
<g><path style="opacity:0.282" fill="#d37c7c" d="M 460.5,202.5 C 460.5,206.167 460.5,209.833 460.5,213.5C 459.833,211.833 459.167,210.167 458.5,208.5C 458.025,205.918 458.692,203.918 460.5,202.5 Z"/></g>
<g><path style="opacity:0.251" fill="#f9efef" d="M 498.5,192.5 C 500.104,195.403 501.104,198.737 501.5,202.5C 502.495,207.792 502.828,213.125 502.5,218.5C 500.571,210.064 499.237,201.397 498.5,192.5 Z"/></g>
<g><path style="opacity:0.349" fill="#ebbdbb" d="M 92.5,166.5 C 89.4088,179.679 84.9088,192.346 79,204.5C 78.0784,208.691 78.4118,212.691 80,216.5C 80.4169,215.244 81.2502,214.577 82.5,214.5C 81.3846,223.607 79.5512,223.607 77,214.5C 76.3333,211.167 76.3333,207.833 77,204.5C 82.0952,191.693 87.2618,179.026 92.5,166.5 Z"/></g>
<g><path style="opacity:0.203" fill="#f9efef" d="M 140.5,204.5 C 142.402,207.337 143.069,210.671 142.5,214.5C 140.989,211.456 140.322,208.122 140.5,204.5 Z"/></g>
<g><path style="opacity:0.17" fill="#edc3c2" d="M 84.5,208.5 C 84.405,210.786 83.7384,212.786 82.5,214.5C 82.0254,211.918 82.6921,209.918 84.5,208.5 Z"/></g>
<g><path style="opacity:0.143" fill="#f5e2e2" d="M 458.5,208.5 C 459.167,210.167 459.833,211.833 460.5,213.5C 460.5,214.5 460.5,215.5 460.5,216.5C 458.631,214.365 457.964,211.698 458.5,208.5 Z"/></g>
<g><path style="opacity:0.206" fill="#f9f2f2" d="M 142.5,214.5 C 144.423,218.029 145.089,222.029 144.5,226.5C 143.205,222.733 142.539,218.733 142.5,214.5 Z"/></g>
<g><path style="opacity:0.176" fill="#f8ebeb" d="M 398.5,208.5 C 397.904,214.458 396.57,220.125 394.5,225.5C 394.183,222.428 394.516,219.428 395.5,216.5C 395.92,213.384 396.92,210.717 398.5,208.5 Z"/></g>
<g><path style="opacity:0.174" fill="#f8ecec" d="M 684.5,200.5 C 684.541,209.768 682.208,218.434 677.5,226.5C 675.833,228.167 674.167,229.833 672.5,231.5C 644.119,247.026 614.785,260.359 584.5,271.5C 582.257,272.474 579.924,272.808 577.5,272.5C 609.643,259.931 640.977,245.431 671.5,229C 678.45,220.606 682.783,211.106 684.5,200.5 Z"/></g>
<g><path style="opacity:0.285" fill="#f8eff0" d="M 224.5,209.5 C 225.15,224.206 224.483,238.539 222.5,252.5C 222.777,237.992 223.443,223.659 224.5,209.5 Z"/></g>
<g><path style="opacity:0.251" fill="#faf3f3" d="M 502.5,218.5 C 504.45,223.735 505.117,229.402 504.5,235.5C 503.263,230.04 502.596,224.373 502.5,218.5 Z"/></g>
<g><path style="opacity:0.175" fill="#f3dbda" d="M 460.5,221.5 C 460.57,225.425 459.903,229.091 458.5,232.5C 458.335,229.15 458.502,225.817 459,222.5C 459.383,221.944 459.883,221.611 460.5,221.5 Z"/></g>
<g><path style="opacity:0.153" fill="#f9f2f3" d="M 394.5,226.5 C 394.198,229.373 393.531,232.039 392.5,234.5C 391.964,231.302 392.631,228.635 394.5,226.5 Z"/></g>
<g><path style="opacity:0.193" fill="#f7eaea" d="M 144.5,228.5 C 146.423,232.029 147.089,236.029 146.5,240.5C 145.205,236.733 144.539,232.733 144.5,228.5 Z"/></g>
<g><path style="opacity:0.299" fill="#f9f0f1" d="M 516.5,228.5 C 516.358,240.683 515.692,252.683 514.5,264.5C 513.854,252.12 514.521,240.12 516.5,228.5 Z"/></g>
<g><path style="opacity:0.299" fill="#f7e6e6" d="M 452.5,231.5 C 454.036,233.025 455.036,235.025 455.5,237.5C 456.057,235.668 457.057,234.335 458.5,233.5C 458.303,237.622 457.47,241.622 456,245.5C 453.878,241.124 452.711,236.457 452.5,231.5 Z"/></g>
<g><path style="opacity:0.183" fill="#f7e9e9" d="M 392.5,234.5 C 392.785,237.829 392.118,240.829 390.5,243.5C 389.945,239.988 390.612,236.988 392.5,234.5 Z"/></g>
<g><path style="opacity:0.182" fill="#fbf7f3" d="M 670.5,240.5 C 666.872,247.986 660.872,251.986 652.5,252.5C 657.895,250.144 662.562,246.478 666.5,241.5C 667.689,240.571 669.022,240.238 670.5,240.5 Z"/></g>
<g><path style="opacity:0.948" fill="#eec352" d="M 670.5,240.5 C 671.167,240.5 671.833,240.5 672.5,240.5C 673.507,251.837 679.507,258.837 690.5,261.5C 689.833,262.167 689.167,262.833 688.5,263.5C 679.468,265.535 674.801,271.202 674.5,280.5C 674.843,282.483 674.176,283.817 672.5,284.5C 664.907,279.205 656.574,275.205 647.5,272.5C 647.5,272.167 647.5,271.833 647.5,271.5C 649.293,269.574 650.293,267.241 650.5,264.5C 650.5,263.833 650.5,263.167 650.5,262.5C 650.606,259.385 649.606,256.719 647.5,254.5C 648.779,253.032 650.446,252.365 652.5,252.5C 660.872,251.986 666.872,247.986 670.5,240.5 Z"/></g>
<g><path style="opacity:0.214" fill="#f9f1f1" d="M 146.5,242.5 C 148.446,247.396 149.113,252.729 148.5,258.5C 147.449,253.354 146.782,248.021 146.5,242.5 Z"/></g>
<g><path style="opacity:0.153" fill="#f7e6e7" d="M 390.5,244.5 C 390.706,247.495 390.04,250.162 388.5,252.5C 387.964,249.302 388.631,246.635 390.5,244.5 Z"/></g>
<g><path style="opacity:0.156" fill="#fbf6f1" d="M 672.5,240.5 C 674.521,246.16 677.854,251.16 682.5,255.5C 684.99,257.083 687.657,258.083 690.5,258.5C 690.5,259.5 690.5,260.5 690.5,261.5C 679.507,258.837 673.507,251.837 672.5,240.5 Z"/></g>
<g><path style="opacity:0.183" fill="#f7e9e9" d="M 388.5,252.5 C 388.785,255.829 388.118,258.829 386.5,261.5C 385.945,257.988 386.612,254.988 388.5,252.5 Z"/></g>
<g><path style="opacity:0.125" fill="#fbf7f4" d="M 647.5,254.5 C 649.606,256.719 650.606,259.385 650.5,262.5C 649.833,262.5 649.167,262.5 648.5,262.5C 648.421,260.334 647.754,258.334 646.5,256.5C 646.543,255.584 646.876,254.917 647.5,254.5 Z"/></g>
<g><path style="opacity:0.34" fill="#dc9b9a" d="M 306.5,268.5 C 305.833,268.167 305.167,267.833 304.5,267.5C 304.321,265.394 303.321,263.728 301.5,262.5C 300.735,263.612 299.735,264.279 298.5,264.5C 298.5,261.833 298.5,259.167 298.5,256.5C 299.822,256.33 300.989,256.663 302,257.5C 304.558,260.731 306.058,264.398 306.5,268.5 Z"/></g>
<g><path style="opacity:0.157" fill="#f8eced" d="M 560.5,253.5 C 559.274,262.72 562.941,269.053 571.5,272.5C 567.383,273.041 564.049,271.708 561.5,268.5C 560.506,263.544 560.173,258.544 560.5,253.5 Z"/></g>
<g><path style="opacity:0.227" fill="#f9f1f2" d="M 148.5,262.5 C 150.48,274.789 151.147,287.456 150.5,300.5C 143.214,301.449 135.88,302.116 128.5,302.5C 123.449,302.493 118.783,301.827 114.5,300.5C 126.123,302.522 137.456,301.522 148.5,297.5C 149.528,285.839 149.528,274.173 148.5,262.5 Z"/></g>
<g><path style="opacity:0.141" fill="#f9f2f3" d="M 386.5,262.5 C 386.198,265.373 385.531,268.039 384.5,270.5C 383.964,267.302 384.631,264.635 386.5,262.5 Z"/></g>
<g><path style="opacity:0.199" fill="#f8eaeb" d="M 24.5,242.5 C 30.551,268.723 46.7177,284.056 73,288.5C 75.3278,280.34 77.1611,272.34 78.5,264.5C 79.0325,272.71 78.0325,280.71 75.5,288.5C 74.0506,289.617 72.3839,290.284 70.5,290.5C 49.24,286.232 34.24,274.232 25.5,254.5C 24.5091,250.555 24.1758,246.555 24.5,242.5 Z"/></g>
<g><path style="opacity:0.986" fill="#254c85" d="M 647.5,271.5 C 647.5,271.833 647.5,272.167 647.5,272.5C 555.271,322.909 457.605,358.242 354.5,378.5C 350.84,378.159 347.507,378.825 344.5,380.5C 335.607,381.206 326.941,382.539 318.5,384.5C 313.586,384.362 308.919,385.028 304.5,386.5C 293.671,386.983 283.004,387.65 272.5,388.5C 267.833,388.5 263.167,388.5 258.5,388.5C 221.832,389.809 185.165,389.809 148.5,388.5C 142.167,388.5 135.833,388.5 129.5,388.5C 122.005,387.549 114.339,386.882 106.5,386.5C 98.0628,384.531 89.3961,383.198 80.5,382.5C 77.3443,381.566 74.0109,380.899 70.5,380.5C 69.5,380.5 68.5,380.5 67.5,380.5C 64.7814,379.087 61.7814,378.42 58.5,378.5C 58.1667,378.5 57.8333,378.5 57.5,378.5C 54.7273,377.343 51.7273,376.676 48.5,376.5C 42.5916,374.156 38.425,369.823 36,363.5C 34.7624,359.732 33.5957,356.066 32.5,352.5C 32.5,351.167 32.5,349.833 32.5,348.5C 32.0815,342.331 31.4149,336.331 30.5,330.5C 30.5,322.5 30.5,314.5 30.5,306.5C 31.8333,306.5 33.1667,306.5 34.5,306.5C 57.3326,314.042 80.666,320.042 104.5,324.5C 118.183,328.228 132.183,330.894 146.5,332.5C 146.833,332.5 147.167,332.5 147.5,332.5C 150.311,333.475 153.311,334.142 156.5,334.5C 157.167,334.5 157.833,334.5 158.5,334.5C 173.55,337.632 188.884,339.632 204.5,340.5C 205.167,340.5 205.833,340.5 206.5,340.5C 211.646,341.551 216.979,342.218 222.5,342.5C 223.167,342.5 223.833,342.5 224.5,342.5C 232.314,343.631 240.314,344.298 248.5,344.5C 252.5,344.5 256.5,344.5 260.5,344.5C 274.301,346.019 288.301,346.685 302.5,346.5C 316.699,346.685 330.699,346.019 344.5,344.5C 345.833,344.5 347.167,344.5 348.5,344.5C 355.721,344.65 362.721,343.983 369.5,342.5C 371.167,342.5 372.833,342.5 374.5,342.5C 380.034,342.332 385.367,341.665 390.5,340.5C 395.049,340.376 399.382,339.709 403.5,338.5C 403.833,338.5 404.167,338.5 404.5,338.5C 409.37,338.31 414.036,337.644 418.5,336.5C 422.387,336.354 426.054,335.687 429.5,334.5C 429.833,334.5 430.167,334.5 430.5,334.5C 433.781,334.58 436.781,333.913 439.5,332.5C 440.5,332.5 441.5,332.5 442.5,332.5C 445.373,332.198 448.039,331.531 450.5,330.5C 451.167,330.5 451.833,330.5 452.5,330.5C 458.754,329.785 464.754,328.452 470.5,326.5C 490.301,322.386 509.634,317.053 528.5,310.5C 542.412,307.197 555.746,302.531 568.5,296.5C 594.385,287.644 619.552,276.977 644,264.5C 647.044,265.781 648.21,268.115 647.5,271.5 Z"/></g>
<g><path style="opacity:0.196" fill="#fbf8f6" d="M 688.5,263.5 C 682.592,268.383 677.925,274.05 674.5,280.5C 674.801,271.202 679.468,265.535 688.5,263.5 Z"/></g>
<g><path style="opacity:0.251" fill="#f7ebec" d="M 244.5,210.5 C 243.177,238.499 243.177,266.499 244.5,294.5C 243.167,280.85 242.501,266.85 242.5,252.5C 242.501,238.15 243.167,224.15 244.5,210.5 Z"/></g>
<g><path style="opacity:0.167" fill="#f9f3f4" d="M 304.5,267.5 C 305.167,267.833 305.833,268.167 306.5,268.5C 306.5,269.833 306.5,271.167 306.5,272.5C 304.744,271.448 304.077,269.781 304.5,267.5 Z"/></g>
<g><path style="opacity:0.216" fill="#f8ebec" d="M 306.5,272.5 C 309.978,286.087 315.145,299.087 322,311.5C 338.723,315.558 354.723,313.558 370,305.5C 371.733,295.181 371.9,284.848 370.5,274.5C 372.478,285.451 373.144,296.784 372.5,308.5C 367.141,309.952 361.808,311.619 356.5,313.5C 344.5,314.833 332.5,314.833 320.5,313.5C 312.841,300.858 308.175,287.191 306.5,272.5 Z"/></g>
<g><path style="opacity:0.199" fill="#f7e7e8" d="M 384.5,270.5 C 383.904,277.108 382.57,283.442 380.5,289.5C 380.177,285.774 380.511,282.107 381.5,278.5C 381.92,275.384 382.92,272.717 384.5,270.5 Z"/></g>
<g><path style="opacity:0.731" fill="#d27877" d="M 298.5,264.5 C 298.5,276.167 298.5,287.833 298.5,299.5C 297.833,300.5 297.167,301.5 296.5,302.5C 296.076,289.62 296.743,276.953 298.5,264.5 Z"/></g>
<g><path style="opacity:0.195" fill="#eac3c3" d="M 514.5,272.5 C 514.531,277.356 514.198,282.189 513.5,287C 513.068,294.05 516.068,298.883 522.5,301.5C 522.5,301.833 522.5,302.167 522.5,302.5C 518.719,302.907 515.719,301.574 513.5,298.5C 513.167,294.167 512.833,289.833 512.5,285.5C 512.508,280.778 513.175,276.445 514.5,272.5 Z"/></g>
<g><path style="opacity:0.144" fill="#f9f0f1" d="M 88.5,264.5 C 90.6192,271.669 93.4525,278.669 97,285.5C 101.504,292.179 107.337,297.179 114.5,300.5C 110.883,300.517 107.55,299.517 104.5,297.5C 94.3853,288.825 89.0519,277.825 88.5,264.5 Z"/></g>
<g><path style="opacity:0.183" fill="#f8eced" d="M 222.5,262.5 C 222.5,276.5 222.5,290.5 222.5,304.5C 217.875,306.139 213.209,307.806 208.5,309.5C 199.833,310.833 191.167,310.833 182.5,309.5C 176.043,306.374 171.71,301.374 169.5,294.5C 165.621,285.906 163.954,276.906 164.5,267.5C 165.265,272.039 166.098,276.706 167,281.5C 175.862,311.089 193.529,317.756 220,301.5C 220.835,288.343 221.669,275.343 222.5,262.5 Z"/></g>
<g><path style="opacity:0.181" fill="#f2f1f5" d="M 648.5,262.5 C 648.5,263.833 649.167,264.5 650.5,264.5C 650.293,267.241 649.293,269.574 647.5,271.5C 648.21,268.115 647.044,265.781 644,264.5C 619.552,276.977 594.385,287.644 568.5,296.5C 569.335,295.057 570.668,294.057 572.5,293.5C 595.637,284.599 618.303,274.599 640.5,263.5C 643.086,262.52 645.753,262.187 648.5,262.5 Z"/></g>
<g><path style="opacity:0.176" fill="#f5e3e4" d="M 504.5,240.5 C 505.832,249.141 506.498,258.141 506.5,267.5C 506.167,276.5 505.833,285.5 505.5,294.5C 502.179,304.837 495.179,310.17 484.5,310.5C 488.566,308.631 492.566,306.464 496.5,304C 500.208,300.09 503.042,295.59 505,290.5C 505.742,273.816 505.575,257.149 504.5,240.5 Z"/></g>
<g><path style="opacity:0.183" fill="#f8ebeb" d="M 380.5,294.5 C 382.504,303.837 387.838,310.503 396.5,314.5C 384.593,313.248 379.26,306.581 380.5,294.5 Z"/></g>
<g><path style="opacity:0.158" fill="#f6e6e6" d="M 474.5,310.5 C 468.955,311.06 463.955,309.727 459.5,306.5C 458.503,299.866 458.17,293.2 458.5,286.5C 455.167,286.5 451.833,286.5 448.5,286.5C 448.684,293.618 447.017,300.285 443.5,306.5C 438.685,312.74 432.351,315.407 424.5,314.5C 439.785,310.686 447.452,300.686 447.5,284.5C 451.5,284.5 455.5,284.5 459.5,284.5C 459.302,291.924 459.968,299.257 461.5,306.5C 465.922,307.865 470.255,309.198 474.5,310.5 Z"/></g>
<g><path style="opacity:0.1" fill="#f8eeef" d="M 546.5,249.5 C 549.247,270.552 542.58,287.885 526.5,301.5C 525.311,302.429 523.978,302.762 522.5,302.5C 522.5,302.167 522.5,301.833 522.5,301.5C 526.422,299.085 529.922,296.085 533,292.5C 542.042,279.542 546.542,265.209 546.5,249.5 Z"/></g>
<g><path style="opacity:0.152" fill="#f8eced" d="M 244.5,297.5 C 246.438,301.192 248.771,304.692 251.5,308C 267.979,316.874 282.979,315.041 296.5,302.5C 297.167,301.5 297.833,300.5 298.5,299.5C 298.243,303.782 296.243,307.116 292.5,309.5C 289.833,310.833 287.167,312.167 284.5,313.5C 275.833,314.833 267.167,314.833 258.5,313.5C 255.45,311.483 252.117,310.483 248.5,310.5C 248.577,307.988 247.577,305.988 245.5,304.5C 244.526,302.257 244.192,299.924 244.5,297.5 Z"/></g>
<g><path style="opacity:0.185" fill="#f4f3f6" d="M 568.5,296.5 C 555.746,302.531 542.412,307.197 528.5,310.5C 529.335,309.057 530.668,308.057 532.5,307.5C 544.342,303.242 556.342,299.575 568.5,296.5 Z"/></g>
<g><path style="opacity:0.176" fill="#e4e6ee" d="M 34.5,306.5 C 55.7926,311.489 77.1259,316.489 98.5,321.5C 100.975,321.964 102.975,322.964 104.5,324.5C 80.666,320.042 57.3326,314.042 34.5,306.5 Z"/></g>
<g><path style="opacity:0.199" fill="#f4f3f6" d="M 528.5,310.5 C 509.634,317.053 490.301,322.386 470.5,326.5C 472.025,324.964 474.025,323.964 476.5,323.5C 493.827,318.943 511.16,314.609 528.5,310.5 Z"/></g>
<g><path style="opacity:0.153" fill="#e4e6ee" d="M 104.5,324.5 C 115.206,325.774 125.873,327.44 136.5,329.5C 140.263,329.896 143.597,330.896 146.5,332.5C 132.183,330.894 118.183,328.228 104.5,324.5 Z"/></g>
<g><path style="opacity:0.176" fill="#dfe2eb" d="M 470.5,326.5 C 464.754,328.452 458.754,329.785 452.5,330.5C 454.717,328.92 457.384,327.92 460.5,327.5C 463.768,326.513 467.102,326.18 470.5,326.5 Z"/></g>
<g><path style="opacity:0.181" fill="#ececf1" d="M 647.5,272.5 C 656.574,275.205 664.907,279.205 672.5,284.5C 670.396,284.799 668.396,284.466 666.5,283.5C 661.058,279.446 655.058,276.446 648.5,274.5C 562.832,321.392 472.165,355.059 376.5,375.5C 369.209,376.938 361.876,377.938 354.5,378.5C 457.605,358.242 555.271,322.909 647.5,272.5 Z"/></g>
<g><path style="opacity:0.121" fill="#f0f0f4" d="M 450.5,330.5 C 448.039,331.531 445.373,332.198 442.5,332.5C 444.635,330.631 447.302,329.964 450.5,330.5 Z"/></g>
<g><path style="opacity:0.137" fill="#f1f1f5" d="M 147.5,332.5 C 151.012,331.945 154.012,332.612 156.5,334.5C 153.311,334.142 150.311,333.475 147.5,332.5 Z"/></g>
<g><path style="opacity:0.183" fill="#f1f1f5" d="M 439.5,332.5 C 436.781,333.913 433.781,334.58 430.5,334.5C 432.988,332.612 435.988,331.945 439.5,332.5 Z"/></g>
<g><path style="opacity:0.188" fill="#efeff3" d="M 429.5,334.5 C 426.054,335.687 422.387,336.354 418.5,336.5C 421.684,334.586 425.351,333.92 429.5,334.5 Z"/></g>
<g><path style="opacity:0.228" fill="#e9eaf0" d="M 158.5,334.5 C 174.252,335.384 189.585,337.384 204.5,340.5C 188.884,339.632 173.55,337.632 158.5,334.5 Z"/></g>
<g><path style="opacity:0.209" fill="#ecedf2" d="M 418.5,336.5 C 414.036,337.644 409.37,338.31 404.5,338.5C 408.715,336.564 413.381,335.897 418.5,336.5 Z"/></g>
<g><path style="opacity:0.197" fill="#e2e4ec" d="M 30.5,330.5 C 31.4149,336.331 32.0815,342.331 32.5,348.5C 30.5467,342.926 29.88,336.926 30.5,330.5 Z"/></g>
<g><path style="opacity:0.197" fill="#f0f0f4" d="M 403.5,338.5 C 399.382,339.709 395.049,340.376 390.5,340.5C 394.373,338.57 398.706,337.903 403.5,338.5 Z"/></g>
<g><path style="opacity:0.204" fill="#f0f0f4" d="M 206.5,340.5 C 212.271,339.887 217.604,340.554 222.5,342.5C 216.979,342.218 211.646,341.551 206.5,340.5 Z"/></g>
<g><path style="opacity:0.183" fill="#dce0e9" d="M 390.5,340.5 C 385.367,341.665 380.034,342.332 374.5,342.5C 379.396,340.554 384.729,339.887 390.5,340.5 Z"/></g>
<g><path style="opacity:0.205" fill="#dfe2eb" d="M 224.5,342.5 C 232.903,341.866 240.903,342.533 248.5,344.5C 240.314,344.298 232.314,343.631 224.5,342.5 Z"/></g>
<g><path style="opacity:0.251" fill="#ebecf1" d="M 369.5,342.5 C 362.721,343.983 355.721,344.65 348.5,344.5C 355.087,342.539 362.087,341.872 369.5,342.5 Z"/></g>
<g><path style="opacity:0.749" fill="#abb8cf" d="M 260.5,344.5 C 288.5,344.5 316.5,344.5 344.5,344.5C 330.699,346.019 316.699,346.685 302.5,346.5C 288.301,346.685 274.301,346.019 260.5,344.5 Z"/></g>
<g><path style="opacity:0.178" fill="#ededf2" d="M 32.5,352.5 C 33.5957,356.066 34.7624,359.732 36,363.5C 38.425,369.823 42.5916,374.156 48.5,376.5C 45.2123,376.927 42.2123,376.26 39.5,374.5C 37.5,370.5 35.5,366.5 33.5,362.5C 32.513,359.232 32.1796,355.898 32.5,352.5 Z"/></g>
<g><path style="opacity:0.183" fill="#f7f6f8" d="M 48.5,376.5 C 51.7273,376.676 54.7273,377.343 57.5,378.5C 53.9878,379.055 50.9878,378.388 48.5,376.5 Z"/></g>
<g><path style="opacity:0.183" fill="#efeff3" d="M 58.5,378.5 C 61.7814,378.42 64.7814,379.087 67.5,380.5C 63.9878,381.055 60.9878,380.388 58.5,378.5 Z"/></g>
<g><path style="opacity:0.183" fill="#e8e9f0" d="M 354.5,378.5 C 351.663,380.402 348.329,381.069 344.5,380.5C 347.507,378.825 350.84,378.159 354.5,378.5 Z"/></g>
<g><path style="opacity:0.137" fill="#e8eaf0" d="M 70.5,380.5 C 74.0109,380.899 77.3443,381.566 80.5,382.5C 76.6707,383.069 73.3373,382.402 70.5,380.5 Z"/></g>
<g><path style="opacity:0.206" fill="#e9eaf0" d="M 344.5,380.5 C 340.916,382.118 336.916,383.118 332.5,383.5C 327.88,384.493 323.214,384.827 318.5,384.5C 326.941,382.539 335.607,381.206 344.5,380.5 Z"/></g>
<g><path style="opacity:0.251" fill="#ecedf2" d="M 80.5,382.5 C 89.3961,383.198 98.0628,384.531 106.5,386.5C 101.125,386.828 95.7921,386.495 90.5,385.5C 86.7366,385.104 83.4032,384.104 80.5,382.5 Z"/></g>
<g><path style="opacity:0.193" fill="#e1e3ec" d="M 318.5,384.5 C 314.285,386.436 309.619,387.103 304.5,386.5C 308.919,385.028 313.586,384.362 318.5,384.5 Z"/></g>
<g><path style="opacity:0.251" fill="#fbf9fa" d="M 106.5,386.5 C 114.339,386.882 122.005,387.549 129.5,388.5C 121.427,389.132 113.76,388.465 106.5,386.5 Z"/></g>
<g><path style="opacity:0.215" fill="#e2e5ed" d="M 304.5,386.5 C 294.219,388.476 283.552,389.143 272.5,388.5C 283.004,387.65 293.671,386.983 304.5,386.5 Z"/></g>
<g><path style="opacity:0.265" fill="#f7f6f8" d="M 148.5,388.5 C 185.165,389.809 221.832,389.809 258.5,388.5C 240.512,389.833 222.179,390.5 203.5,390.5C 184.821,390.5 166.488,389.833 148.5,388.5 Z"/></g>
</svg>
