<?xml version="1.0" standalone="no"?>
<!DOCTYPE svg PUBLIC "-//W3C//DTD SVG 20010904//EN"
 "http://www.w3.org/TR/2001/REC-SVG-20010904/DTD/svg10.dtd">
<svg version="1.0" xmlns="http://www.w3.org/2000/svg"
 width="170.000000pt" height="102.000000pt" viewBox="0 0 170.000000 102.000000"
 preserveAspectRatio="xMidYMid meet">

<g transform="translate(0.000000,102.000000) scale(0.100000,-0.100000)"
fill="#000000" stroke="none">
<path d="M725 904 c-92 -17 -211 -48 -261 -69 -35 -14 -74 -66 -74 -98 0 -15
6 -17 35 -11 41 7 40 9 20 -47 -50 -142 -55 -340 -9 -386 28 -28 79 -31 92 -5
6 9 12 82 15 162 4 114 28 292 41 307 1 2 61 10 132 18 158 18 393 19 494 1
41 -8 78 -11 82 -7 4 4 -1 21 -12 38 -23 39 -96 78 -182 98 -79 19 -266 18
-373 -1z"/>
<path d="M1425 850 c-11 -4 -31 -20 -45 -35 -25 -26 -25 -29 -28 -227 -3 -205
0 -228 37 -228 25 0 214 95 232 116 33 38 35 96 5 107 -7 3 -37 -5 -66 -19
-28 -13 -54 -24 -56 -24 -2 0 -4 63 -4 141 0 77 -5 149 -10 160 -11 20 -32 23
-65 9z"/>
<path d="M293 755 c-53 -35 -147 -136 -196 -207 -21 -32 -27 -53 -27 -92 0
-57 16 -83 70 -115 47 -28 53 -27 48 14 -5 46 17 47 36 1 17 -41 64 -68 109
-64 31 3 32 5 31 48 0 25 -7 82 -14 128 -12 73 -11 92 5 170 29 143 30 152 8
152 -10 0 -41 -16 -70 -35z m-57 -153 c-7 -20 -17 -56 -21 -80 -4 -23 -11 -42
-17 -42 -15 0 -4 54 21 113 24 56 36 63 17 9z"/>
<path d="M1055 721 c-43 -18 -56 -48 -91 -212 -19 -90 -37 -175 -40 -189 -7
-37 8 -52 58 -57 53 -6 85 8 94 42 9 34 30 31 38 -5 5 -26 10 -30 39 -30 70 0
81 55 52 259 -17 117 -30 164 -48 179 -18 15 -79 23 -102 13z m55 -227 c0 -43
-4 -74 -10 -74 -6 0 -10 34 -10 81 0 51 4 78 10 74 6 -3 10 -40 10 -81z"/>
<path d="M653 696 c-37 -17 -41 -27 -53 -137 -13 -108 -13 -231 0 -263 11 -30
66 -44 99 -27 18 10 21 21 21 73 0 72 11 68 34 -14 13 -47 21 -59 41 -64 36
-9 95 4 102 23 10 26 -15 124 -37 148 -20 22 -20 22 -1 40 29 26 44 80 39 142
-7 78 -20 87 -126 91 -59 1 -97 -2 -119 -12z m107 -130 c0 -26 -6 -48 -15 -56
-13 -11 -15 -5 -15 44 0 43 3 56 15 56 11 0 15 -12 15 -44z"/>
<path d="M1254 698 c-4 -6 -8 -92 -8 -192 -1 -100 -5 -189 -10 -199 -6 -12 -4
-17 8 -17 25 0 54 35 66 82 16 59 10 299 -9 321 -16 20 -37 22 -47 5z"/>
<path d="M1420 313 c-207 -85 -433 -126 -700 -127 -213 0 -362 20 -536 70 -47
14 -92 23 -99 20 -10 -3 -10 -19 0 -76 7 -39 16 -75 21 -80 17 -17 246 -40
399 -40 254 0 485 41 710 125 98 37 295 130 295 140 0 3 -1 5 -2 4 -2 0 -41
-17 -88 -36z"/>
</g>
</svg>
